<?xml version="1.0" standalone="no"?>
<!DOCTYPE svg PUBLIC "-//W3C//DTD SVG 20010904//EN"
 "http://www.w3.org/TR/2001/REC-SVG-20010904/DTD/svg10.dtd">
<svg version="1.0" xmlns="http://www.w3.org/2000/svg"
 width="200.000000pt" height="200.000000pt" viewBox="0 0 200.000000 200.000000"
 preserveAspectRatio="xMidYMid meet">
<metadata>
Created by potrace 1.15, written by Peter Selinger 2001-2017
</metadata>
<g transform="translate(0.000000,200.000000) scale(0.100000,-0.100000)"
fill="#000000" stroke="none">
<path d="M325 1728 c-147 -75 -187 -235 -99 -397 56 -104 191 -281 214 -281
23 0 158 177 214 280 87 162 48 323 -95 396 -64 32 -174 33 -234 2z m180 -128
c35 -22 65 -73 65 -112 0 -12 -9 -37 -20 -55 -55 -90 -165 -90 -220 0 -25 40
-25 73 -2 115 36 68 114 91 177 52z"/>
<path d="M812 1628 c-13 -13 -18 -311 -6 -342 3 -9 17 -16 30 -16 23 0 23 2
26 113 l3 112 53 -87 c37 -60 59 -88 72 -88 13 0 32 25 64 83 l46 82 0 -97 c0
-101 13 -134 45 -122 12 5 15 37 15 184 0 180 -3 195 -37 183 -7 -2 -38 -51
-70 -109 -32 -57 -60 -104 -63 -104 -3 0 -32 43 -64 95 -77 126 -89 138 -114
113z"/>
<path d="M1184 1535 c-4 -10 16 -67 48 -140 52 -116 54 -124 42 -154 -9 -20
-24 -36 -44 -42 -22 -8 -30 -17 -30 -34 0 -56 87 -31 120 36 32 61 120 298
120 320 0 25 -28 36 -44 18 -8 -8 -26 -48 -41 -89 -15 -41 -31 -78 -34 -82 -4
-4 -25 34 -47 85 -31 72 -45 93 -62 95 -13 2 -25 -3 -28 -13z"/>
<path d="M245 688 c-3 -8 -4 -68 -3 -134 l3 -119 85 -3 c90 -2 117 6 107 32
-5 13 -21 16 -76 16 l-70 0 -3 107 c-3 93 -5 108 -21 111 -9 2 -19 -3 -22 -10z"/>
<path d="M1097 684 c-4 -4 -7 -18 -7 -31 0 -16 -6 -23 -20 -23 -12 0 -20 -7
-20 -16 0 -9 9 -18 20 -21 18 -5 20 -14 20 -74 0 -59 3 -70 21 -79 24 -13 69
-5 69 12 0 7 6 3 14 -7 8 -11 19 -16 30 -12 24 9 24 192 0 201 -28 11 -34 -4
-34 -83 l0 -78 -30 5 c-29 4 -30 6 -30 58 0 47 2 54 20 54 13 0 20 7 20 20 0
13 -7 20 -19 20 -14 0 -21 8 -23 27 -3 26 -18 39 -31 27z"/>
<path d="M484 621 c-43 -26 -60 -77 -41 -123 20 -47 44 -63 92 -63 50 0 79 22
95 70 15 44 -7 98 -49 119 -39 21 -59 20 -97 -3z"/>
<path d="M704 630 c-34 -14 -54 -51 -54 -98 0 -35 6 -49 30 -74 27 -27 36 -30
73 -25 39 5 77 34 77 58 0 18 -31 21 -49 5 -23 -21 -54 -20 -74 2 -21 23 -21
41 -1 70 19 28 47 28 73 1 12 -13 26 -19 35 -16 22 9 20 21 -6 51 -25 29 -72
40 -104 26z"/>
<path d="M891 626 c-48 -26 -64 -91 -37 -145 23 -43 89 -65 126 -41 9 6 17 5
21 -2 4 -6 14 -8 23 -5 13 5 16 23 16 101 0 96 -8 118 -35 96 -10 -8 -19 -8
-34 -1 -26 14 -51 13 -80 -3z"/>
<path d="M1304 621 c-43 -26 -60 -77 -41 -123 20 -47 44 -63 92 -63 50 0 79
22 95 70 15 44 -7 98 -49 119 -39 21 -59 20 -97 -3z"/>
<path d="M1474 627 c-3 -8 -4 -54 -2 -103 3 -81 5 -89 23 -89 18 0 21 8 25 67
5 71 16 92 46 86 16 -3 20 -15 24 -75 5 -77 11 -89 35 -80 18 7 22 118 5 162
-13 33 -56 50 -89 35 -17 -8 -27 -8 -35 0 -14 14 -26 13 -32 -3z"/>
<path d="M1703 626 c-28 -13 -33 -20 -33 -49 0 -43 13 -54 74 -64 55 -9 62
-27 13 -31 -21 -2 -38 3 -47 12 -14 18 -36 21 -44 7 -17 -27 38 -71 89 -71 36
0 81 25 88 49 10 39 -15 65 -71 76 -29 6 -54 15 -55 20 -4 18 54 17 74 0 20
-19 49 -14 49 8 0 42 -83 67 -137 43z"/>
</g>
</svg>
